<svg width="165" height="128" viewBox="0 0 165 128" fill="none" xmlns="http://www.w3.org/2000/svg">
<path d="M0.713753 113.84L2.47375 122H5.35375L6.55375 115.76H6.71375L7.91375 122H10.7938L12.5538 113.84H10.7938L9.43375 120.48H9.19375L7.83375 113.84H5.43375L4.07375 120.48H3.83375L2.47375 113.84H0.713753ZM16.2381 111.648C16.2381 112.208 16.6701 112.64 17.2301 112.64C17.7901 112.64 18.2381 112.208 18.2381 111.648C18.2381 111.088 17.7901 110.64 17.2301 110.64C16.6701 110.64 16.2381 111.088 16.2381 111.648ZM16.3981 122H18.0781V113.84H16.3981V122ZM21.9119 115.36H22.8719V122H27.1119V120.48H24.5519V115.36H27.0319V113.84H24.5519V112.08H22.8719V113.84H21.9119V115.36ZM31.1119 122H32.7919V117.6C32.7919 116.16 33.7519 115.2 35.0319 115.2C36.3119 115.2 36.9519 115.84 36.9519 117.28V122H38.6319V117.12C38.6319 114.88 37.4319 113.68 35.4319 113.68C33.5919 113.68 32.8719 114.96 32.8719 114.96H32.7919V110.8H31.1119V122ZM49.5956 117.92C49.5956 120.4 51.3556 122.16 53.6756 122.16C56.9556 122.16 57.5956 119.2 57.5956 119.2H55.9156C55.9156 119.2 55.5156 120.64 53.6756 120.64C52.3956 120.64 51.3556 119.6 51.3556 117.92C51.3556 116.24 52.3956 115.2 53.6756 115.2C55.4356 115.2 55.8356 116.64 55.8356 116.64H57.5956C57.5956 116.64 56.9556 113.68 53.6756 113.68C51.3556 113.68 49.5956 115.44 49.5956 117.92ZM61.0306 117.92C61.0306 120.48 62.7106 122.16 64.8706 122.16C66.5506 122.16 67.4306 120.88 67.4306 120.88H67.5106V122H69.1906V113.84H67.5106V114.88H67.4306C67.4306 114.88 66.5506 113.68 64.8706 113.68C62.7106 113.68 61.0306 115.36 61.0306 117.92ZM62.7906 117.92C62.7906 116.16 63.7506 115.2 65.1906 115.2C66.5506 115.2 67.5106 116.16 67.5106 117.92C67.5106 119.68 66.5506 120.64 65.1906 120.64C63.7506 120.64 62.7906 119.68 62.7906 117.92ZM73.0244 115.36H73.9844V122H78.2244V120.48H75.6644V115.36H78.1444V113.84H75.6644V112.08H73.9844V113.84H73.0244V115.36ZM81.6644 119.44C81.6644 119.44 82.1444 122.16 85.5044 122.16C87.7444 122.16 88.9444 120.96 88.9444 119.68C88.9444 116.48 83.8244 117.52 83.8244 116.096C83.8244 115.632 84.2564 115.2 85.2644 115.2C86.7844 115.2 87.1044 116.24 87.1044 116.24H88.8644C88.8644 116.24 88.4644 113.68 85.2644 113.68C83.2644 113.68 82.0644 114.88 82.0644 116.08C82.0644 119.28 87.1844 118.24 87.1844 119.68C87.1844 120.16 86.7844 120.64 85.5044 120.64C83.9044 120.64 83.5044 119.44 83.5044 119.44H81.6644ZM99.345 118.24C99.345 120.48 101.185 122.32 103.585 122.32C105.745 122.32 107.265 120.72 107.345 119.28H107.425L107.585 120.08L108.865 122H111.025L104.785 112.576V112.48H109.345V110.8H102.545V112.48L103.345 113.68L104.065 114.16V114.24C104.065 114.24 103.825 114.16 103.425 114.16C101.185 114.16 99.345 116 99.345 118.24ZM101.265 118.24C101.265 116.88 102.225 115.92 103.585 115.92C104.945 115.92 105.905 116.88 105.905 118.24C105.905 119.6 104.945 120.56 103.585 120.56C102.225 120.56 101.265 119.6 101.265 118.24ZM120.625 117.92C120.625 120.48 122.305 122.16 124.465 122.16C126.145 122.16 127.025 120.96 127.025 120.96H127.105V122H128.785V110.8H127.105V114.88H127.025C127.025 114.88 126.145 113.68 124.465 113.68C122.305 113.68 120.625 115.36 120.625 117.92ZM122.385 117.92C122.385 116.16 123.345 115.2 124.785 115.2C126.145 115.2 127.105 116.16 127.105 117.92C127.105 119.68 126.145 120.64 124.785 120.64C123.345 120.64 122.385 119.68 122.385 117.92ZM132.779 117.92C132.779 120.32 134.619 122.16 137.019 122.16C139.419 122.16 141.259 120.32 141.259 117.92C141.259 115.52 139.419 113.68 137.019 113.68C134.619 113.68 132.779 115.52 132.779 117.92ZM134.539 117.92C134.539 116.24 135.579 115.2 137.019 115.2C138.459 115.2 139.499 116.24 139.499 117.92C139.499 119.6 138.459 120.64 137.019 120.64C135.579 120.64 134.539 119.6 134.539 117.92ZM144.776 117.92C144.776 120.48 146.456 122.16 148.616 122.16C150.296 122.16 151.176 120.96 151.176 120.96H151.256V123.52H145.976V125.04H152.936V113.84H151.256V114.896H151.176C151.176 114.896 150.296 113.68 148.616 113.68C146.456 113.68 144.776 115.36 144.776 117.92ZM146.536 117.92C146.536 116.16 147.496 115.2 148.936 115.2C150.296 115.2 151.256 116.16 151.256 117.92C151.256 119.68 150.296 120.64 148.936 120.64C147.496 120.64 146.536 119.68 146.536 117.92ZM156.85 119.44C156.85 119.44 157.33 122.16 160.69 122.16C162.93 122.16 164.13 120.96 164.13 119.68C164.13 116.48 159.01 117.52 159.01 116.096C159.01 115.632 159.442 115.2 160.45 115.2C161.97 115.2 162.29 116.24 162.29 116.24H164.05C164.05 116.24 163.65 113.68 160.45 113.68C158.45 113.68 157.25 114.88 157.25 116.08C157.25 119.28 162.37 118.24 162.37 119.68C162.37 120.16 161.97 120.64 160.69 120.64C159.09 120.64 158.69 119.44 158.69 119.44H156.85Z" fill="#965D57"/>
<g clip-path="url(#clip0)">
<path fill-rule="evenodd" clip-rule="evenodd" d="M91.5214 29.7662C90.7548 29.7662 90.1415 29.4107 89.886 28.8519L89.7837 28.8011C89.5282 29.2583 88.8127 29.0043 88.506 28.6995C88.3527 28.4963 88.4549 28.2424 88.506 28.0392C87.9949 27.7344 87.2283 27.582 87.4327 26.6677C87.2794 26.5661 87.1772 26.4137 87.1772 26.2613C87.1261 26.1597 86.5128 25.9058 86.615 25.5502C86.4617 25.1438 86.615 24.2803 86.2572 23.9247C85.7972 23.62 86.2061 23.112 86.4105 22.7564C86.8705 22.0453 87.0239 21.7405 85.8995 20.9278C84.1618 18.2864 83.2418 12.7497 84.4173 10.4639C83.9573 10.0067 84.7751 9.19402 84.9795 9.09243C84.5706 8.43208 85.0817 7.72095 85.5417 7.46697C85.3884 7.16219 85.4395 6.75583 85.7972 6.65424C85.5417 6.19708 85.8484 5.84151 86.2061 5.38435C86.6661 5.02878 86.7172 4.01287 87.4327 4.16525C87.3305 3.6573 87.9438 3.6065 88.2505 3.50491C88.6082 3.40332 88.6082 3.40332 89.0682 3.6065C89.1704 3.40332 89.426 3.30173 89.6304 3.35252C89.7326 3.04775 90.1415 2.84457 90.4482 3.04775C90.5504 2.89536 90.7548 2.84457 90.9081 2.84457C91.2148 2.69218 91.3681 2.59059 91.7259 2.69218C92.2881 2.74298 92.6458 1.87945 93.208 2.23502C94.7924 1.87945 95.7124 1.2699 96.9901 0.304788C97.1434 0.152401 97.3479 0.203197 97.5523 0.253992C97.8078 0.304788 98.37 0.0508099 98.7789 -0.0507812C99.1367 1.43461e-05 99.1878 0.203197 99.6478 0.203197C99.6989 0.304788 101.028 -0.203168 101.181 0.355584C101.385 0.457175 107.416 4.16525 106.139 5.02878C106.19 5.23196 106.036 5.48594 105.883 5.58753C106.343 6.50185 106.905 6.65424 106.701 8.02572C107.672 8.07651 108.03 9.95595 107.263 10.4639C107.365 11.6322 106.956 12.8005 107.212 14.0196C107.263 14.172 107.212 14.3752 107.059 14.4768C106.65 14.8831 106.496 15.5435 106.65 16.2038C106.701 16.407 106.65 16.5594 106.496 16.7118C105.985 17.1689 105.474 17.8801 105.525 18.4388C105.525 18.7944 105.934 18.9468 105.883 19.3023C105.679 20.5722 105.065 23.5692 103.685 22.858C103.43 23.0104 103.328 23.3152 103.021 23.3152C101.13 22.858 101.488 26.1089 99.8522 26.1597C99.75 26.5661 99.6989 26.7693 99.4433 26.8709C99.29 26.9217 99.2389 27.1249 99.29 27.2773C99.6989 27.7852 98.9834 28.344 98.5234 28.4455C98.2167 28.3948 97.9101 28.2932 97.7567 28.6487C97.4501 29.2075 96.6835 28.9027 96.1724 28.9027C96.019 28.9027 95.8146 28.8519 95.7124 28.6995C95.5079 28.3948 94.588 28.3948 94.3835 28.6995C94.1791 29.0043 93.8214 28.9027 93.5147 28.8011C93.2592 29.3599 92.3903 29.7662 91.5214 29.7662Z" fill="#965D57"/>
<path fill-rule="evenodd" clip-rule="evenodd" d="M61.1118 28.9041C59.9362 28.9041 58.403 28.5485 57.4319 25.8563C56.6653 24.7388 55.132 25.45 54.7231 23.8753C54.672 23.6721 54.7231 23.5197 54.8765 23.3673C55.132 23.1134 55.0809 22.5546 55.1831 22.3514C52.8832 20.9799 53.241 16.4591 53.4454 13.767C53.4965 13.259 53.4965 12.8019 53.5476 12.4463C53.5476 12.2939 53.5987 12.1415 53.7521 12.0907C55.4387 10.77 56.6653 9.85571 57.9941 8.12866C57.5341 6.24922 58.5052 5.18251 59.3229 4.31899C59.7829 3.81103 60.1918 3.40466 60.2429 2.9475C60.9584 -0.862165 66.8871 0.509316 70.1069 2.08398C73.9912 5.23331 74.2468 9.75412 73.7357 12.8019C74.1956 14.1225 73.889 16.0528 73.5823 17.8814C73.429 18.7449 73.2757 19.6085 73.2246 20.3704C73.2246 20.5228 73.1224 20.6752 73.0201 20.7768C72.7135 21.1323 73.2757 21.8943 72.6624 22.0974C72.7135 23.0626 72.4068 25.0436 70.7202 25.6531C70.3114 27.0754 69.187 27.8373 68.3181 28.4469C68.2159 28.5485 68.0626 28.6501 67.9092 28.5993C65.6605 27.7358 63.2583 28.8533 61.1118 28.9041Z" fill="#965D57"/>
<path fill-rule="evenodd" clip-rule="evenodd" d="M118.405 47.8519C117.843 47.8519 117.536 47.6487 117.434 47.1915C117.076 47.3439 116.769 47.8519 116.309 47.4455C114.265 48.1567 112.681 44.9057 112.732 43.3311C111.045 43.0771 109.921 42.0104 109.41 39.9786C109.41 39.5214 109.205 37.9975 108.95 36.9816C108.899 36.7784 109.001 36.6261 109.103 36.4737C108.132 32.6132 114.418 31.4957 114.214 27.9908C114.214 27.7368 114.367 27.5336 114.572 27.4829C114.623 27.2289 114.469 27.0257 114.674 26.8225C116.054 25.4002 117.485 24.0288 118.967 22.5557C117.791 20.4731 119.376 20.1683 121.625 19.8635C122.698 19.7111 123.72 19.5587 124.282 19.1524C124.385 19.0508 124.538 19.0508 124.64 19.0508C128.831 19.3556 131.489 22.2001 131.795 26.6701C131.846 26.9749 131.591 27.2289 131.284 27.2289C129.955 28.448 130.313 28.8543 130.824 29.4639C131.489 30.2258 131.949 31.0385 131.029 32.9688C129.853 35.4578 129.955 37.0832 130.058 38.3023C130.211 40.2325 130.109 41.1469 126.327 42.8231C126.838 43.2803 126.48 44.8549 125.611 44.2962C125.56 44.2962 125.56 44.2454 125.509 44.2454C126.378 46.328 121.829 48.1567 120.296 47.5471H120.245C119.836 47.5471 119.018 47.8519 118.405 47.8519Z" fill="#965D57"/>
<path fill-rule="evenodd" clip-rule="evenodd" d="M34.944 54.0978C33.8196 54.0978 32.9507 53.6914 32.3885 52.9295C32.0819 53.0311 31.6219 53.2851 31.3153 52.9295C29.6287 50.6437 27.5843 48.0023 25.9999 45.1578C25.8466 41.9069 27.891 40.6878 27.6865 37.3353C27.6354 37.0305 27.9932 36.8273 28.1465 36.6241C28.5554 36.167 28.8109 35.913 29.5775 35.7098C29.1687 33.678 30.7019 33.1192 30.1909 31.189C30.1397 30.3763 30.9064 30.1223 31.7241 29.7159C32.3885 29.4112 33.053 29.1572 33.0019 28.4968C33.0019 28.2429 33.1552 28.0397 33.3596 27.9889C34.3818 27.5825 35.2506 26.465 36.4773 27.2269C36.4773 25.8047 37.9083 25.9571 38.7261 25.3475C39.0327 25.0427 39.5438 25.3983 39.8505 25.3475C40.106 25.3475 40.3615 25.4491 40.4127 25.7031C40.5149 25.9571 40.5149 25.9571 40.8726 26.0586C41.026 26.1094 41.1793 26.2618 41.2304 26.4142C41.2815 26.4142 41.3326 26.4142 41.3837 26.4142C41.4859 26.211 41.7415 26.1094 41.997 26.1602C42.1504 26.1602 42.2526 26.0586 42.4059 26.0586C42.6614 26.1094 43.0703 26.211 43.1725 26.211C43.4281 26.211 43.4792 26.1094 43.5303 26.1094C44.2969 25.4491 45.1147 26.6174 45.3702 27.2269C45.5747 27.6333 45.7791 27.9889 46.1369 28.2429C46.2902 28.3444 46.3924 28.4968 46.3924 28.7C48.539 30.3255 47.7723 34.1351 47.5168 35.2526C48.6923 37.4877 47.8235 39.0115 47.0568 40.383C46.4946 41.3989 45.9835 42.2624 46.3924 43.2783C46.4946 43.4815 46.4435 43.6847 46.2902 43.8371C46.0857 44.0403 45.9324 44.4466 45.9324 44.6498C45.9835 44.853 45.9835 45.0054 45.8302 45.1578C44.8591 46.2245 42.8659 50.5421 41.997 50.7453C41.1793 51.1009 40.566 51.7104 40.2593 52.4216C40.1571 52.6755 39.7993 52.7771 39.5438 52.6755C38.3172 53.3867 36.4773 54.0978 34.944 54.0978Z" fill="#965D57"/>
<path fill-rule="evenodd" clip-rule="evenodd" d="M86.6154 35.8597C87.4331 35.8597 88.1998 35.9105 90.3463 35.7581C91.5218 37.3836 87.2287 38.2979 91.0619 38.8059C91.6241 39.2122 93.0551 39.6186 92.3907 40.3805C93.8217 41.1933 92.8507 42.9711 95.1506 42.5647C95.3039 42.1076 96.3772 42.1076 96.5305 42.5647C97.5016 41.752 98.8304 43.2759 98.7282 44.1902C98.8304 44.1394 99.2393 43.987 99.3926 43.987C99.6482 43.9362 99.8015 44.241 100.006 44.241C100.568 44.1902 101.181 43.3775 101.744 43.8854C101.948 43.6822 102.255 43.6822 102.459 43.8854C102.51 43.9362 102.612 44.0378 102.868 44.0378C103.43 44.0886 104.504 43.3775 104.81 44.1394C104.912 44.3934 105.117 44.6474 105.372 44.7997C105.628 44.9013 105.73 45.2061 105.628 45.4601C105.423 45.968 105.475 46.222 105.73 46.6284C105.883 46.8316 105.832 47.0856 105.679 47.2887C105.679 47.4919 106.292 47.8475 107.468 47.9491C107.621 47.9491 107.774 48.1015 107.877 48.2538L107.928 48.3046C108.234 48.1015 108.643 48.1523 108.797 48.5078C108.95 49.0158 109.257 49.0666 109.614 49.1682C110.126 49.2698 110.432 49.4729 110.585 50.1841C112.221 50.5397 111.914 52.8763 111.403 53.9938C111.71 54.2985 111.25 54.8065 111.403 55.1113C111.505 55.3144 111.352 55.4668 111.403 55.67C111.965 55.8732 111.659 56.5843 112.017 56.9907C112.119 57.0923 112.221 57.2955 112.17 57.4479L111.965 58.413C112.63 61.1051 112.374 63.3909 113.243 66.2863C113.294 66.4387 113.243 66.6419 113.141 66.7434C112.936 66.9466 112.885 67.353 112.783 67.7086C112.63 68.2673 112.528 68.6737 112.221 68.8261C112.272 69.08 112.528 69.5372 112.374 69.7912C112.068 70.4007 112.221 74.1596 110.739 73.2961C110.637 73.4485 110.637 73.5501 110.534 73.7532C110.432 74.1596 110.074 74.2612 109.768 74.3628C109.614 74.4136 109.359 74.5152 109.206 74.6676C109.052 74.8708 108.797 74.9215 108.592 74.82C108.439 75.1755 108.081 75.1755 107.774 75.0739C107.417 74.9723 107.059 74.8707 106.803 74.8707C106.292 74.82 106.241 75.3279 105.832 75.3279C105.628 75.3279 105.475 75.1755 105.321 75.0739C105.168 75.3787 104.708 75.4295 104.504 75.6327C104.146 75.9375 103.481 75.9883 103.43 75.3787C103.072 75.2263 102.612 75.3787 102.306 75.4803C102.05 75.5819 101.693 75.6327 101.488 75.3787C100.159 73.9056 98.7282 74.566 97.1949 74.6168C96.9905 74.6168 96.7861 74.4644 96.7349 74.312C96.0705 72.6865 93.8217 72.7373 92.4418 72.1278C90.0397 72.8389 88.9664 70.8071 86.6665 72.9913C86.5132 73.1437 86.2576 73.1437 86.1043 73.0421C85.5932 72.7881 85.0821 72.6357 84.5199 72.6357C84.0599 72.6357 83.6511 72.7881 83.2422 72.8389C83.0889 72.8389 82.9866 72.7881 82.8844 72.6865C82.5778 72.4326 82.2711 72.2802 81.8622 72.2802C80.9423 72.2802 79.8179 73.0421 78.7446 73.7532C77.5691 74.4644 76.6491 75.3787 75.6781 74.8707C75.167 75.2263 74.9114 75.6327 74.4003 75.7343C74.247 75.7343 74.1448 75.6327 74.0426 75.6327C73.787 75.6327 73.4804 75.8867 73.4804 76.4962C73.6337 76.801 73.6337 77.2073 73.2248 77.3597C72.3049 77.6137 71.8449 79.29 70.7205 78.6804C70.9249 79.2392 70.4138 79.4424 69.9027 79.3916C69.0339 79.3408 68.1139 79.29 67.7051 78.9344C66.3762 78.8836 66.1207 80.6614 64.6896 80.8138C64.5363 80.8646 64.383 80.763 64.2297 80.7122C63.6163 80.8138 62.6453 81.5758 62.1342 80.8138C62.0831 81.1694 61.572 81.3218 61.3164 81.0678C61.2142 81.4234 60.7542 81.525 60.4987 81.271C60.3965 81.1186 59.8343 81.0678 59.3743 81.0678C59.6298 81.9313 58.4032 81.7282 58.0455 82.2869C57.841 82.6425 57.4833 82.5917 57.1766 82.4393C57.0233 82.4901 56.87 82.4901 56.7677 82.4393C56.7166 82.4393 56.6655 82.4393 56.6144 82.4393C56.3589 82.7949 55.7967 82.7949 55.3367 82.8965C55.1834 82.8965 55.03 82.8457 54.9278 82.7441C54.6723 82.8965 54.4167 82.9473 54.2123 82.9473C53.6501 82.9473 53.2412 82.5917 52.8835 82.2869C52.5768 82.0329 52.3213 81.8297 52.0657 81.8805C51.8613 81.9313 51.5546 81.7282 51.4013 81.6774C51.248 82.1345 50.4813 82.1345 50.2769 81.6774C50.0725 81.8298 49.7658 81.9313 49.5614 81.7282C49.3569 81.525 48.897 81.4742 48.897 81.1186C48.7947 80.3059 48.2837 80.1027 47.517 80.1027C46.8526 80.1027 46.0349 80.3059 45.5749 79.7471C44.3483 80.763 40.8217 75.4803 41.9973 74.0072C41.8439 73.804 41.895 73.4993 42.0995 73.3469C42.355 73.1437 42.4061 72.6865 42.5595 72.3818C41.7417 72.2294 41.4351 71.7722 41.1284 71.3151C40.9751 71.0611 40.6684 70.8579 40.6173 70.5531C40.1573 67.4038 41.2306 64.3053 43.3772 62.5274C42.4061 60.902 44.8594 55.5176 46.9548 55.416C47.0059 55.3144 47.057 55.2128 47.057 55.1621C47.057 54.9081 47.2615 54.7049 47.517 54.7049C47.7215 54.7049 47.977 54.5017 48.2325 54.3493C48.9481 53.7906 49.868 53.435 50.5324 54.3493C50.6347 53.7906 51.1458 53.943 51.6057 53.9938C52.0146 54.0445 52.1168 53.689 52.4746 53.689C52.8324 53.689 53.0879 54.0445 53.3434 54.0445C53.4968 54.0445 54.1612 53.8922 54.4167 53.8414C54.3145 53.689 54.0079 53.3842 54.3145 52.927C54.3656 52.8255 54.5189 52.7239 54.6212 52.6731C54.9789 52.5715 55.2345 52.9778 55.5411 52.927C55.95 52.927 56.3589 52.5715 56.7677 52.3683C56.9722 52.2667 57.2277 52.3175 57.3811 52.4699C57.7388 52.8255 58.2499 53.1302 58.5566 53.5874C58.6077 53.6382 58.6077 53.689 58.6588 53.7398C58.7099 53.7906 58.761 53.7906 58.8121 53.8414C58.7099 50.6412 61.0609 47.6951 64.3319 48.1015C64.2808 47.8983 64.383 47.6443 64.6385 47.5427C64.6896 47.4919 64.843 47.4919 64.8941 47.3903C64.8941 47.2379 64.9963 47.0856 65.1496 46.984C66.5807 43.6314 67.0406 38.7043 71.7427 38.7551C73.3782 38.9583 74.4514 37.9423 75.5247 36.774C76.4447 35.7581 77.4669 34.7422 78.949 34.6406C79.3068 34.6406 79.4601 34.8438 79.5112 35.1486C79.7157 35.1486 79.9201 35.2502 80.0223 35.4534C80.6356 35.9105 81.8111 35.9105 82.22 36.5709C82.4756 36.4185 83.2933 36.5201 83.4977 36.2661C83.7533 35.9613 84.3666 36.2661 84.6732 36.3169C84.7755 35.4026 86.0021 35.9613 86.6154 35.8597Z" fill="#965D57"/>
</g>
<defs>
<clipPath id="clip0">
<rect width="106" height="83" fill="white" transform="translate(26)"/>
</clipPath>
</defs>
</svg>
